<svg width="59" height="59" viewBox="0 0 59 59" fill="none" xmlns="http://www.w3.org/2000/svg">
<g clip-path="url(#clip0_0_3)">
<line x1="46.35" y1="10.03" x2="46.35" y2="15.9293" stroke="#FFC0CB" stroke-width="2"/>
<line x1="46.35" y1="43.0658" x2="46.35" y2="48.9651" stroke="#FFC0CB" stroke-width="2"/>
<path d="M46.3129 37.7565L59 15.7818H33.6258L46.3129 37.7565Z" fill="#FFC0CB"/>
<circle cx="46.3092" cy="40.4112" r="2.65467" fill="#FFC0CB"/>
<path d="M14.7481 28.9076C19.9611 28.9076 24.187 24.6817 24.187 19.4688C24.187 14.2559 19.9611 10.03 14.7481 10.03H5.89926V28.9076H14.7481Z" fill="#FFC0CB"/>
<path d="M14.7481 48.9651C19.9611 48.9651 24.187 44.7392 24.187 39.5263C24.187 34.3134 19.9611 30.0875 14.7481 30.0875H5.89926V48.9651H14.7481Z" fill="#FFC0CB"/>
<line y1="14.7" x2="5.89926" y2="14.7" stroke="#FFC0CB" stroke-width="2"/>
<line y1="34.7575" x2="5.89926" y2="34.7575" stroke="#FFC0CB" stroke-width="2"/>
<line x1="24.187" y1="19.4194" x2="30.0862" y2="19.4194" stroke="#FFC0CB" stroke-width="2"/>
<line x1="24.187" y1="39.4769" x2="30.0862" y2="39.4769" stroke="#FFC0CB" stroke-width="2"/>
<line y1="24.1388" x2="5.89926" y2="24.1388" stroke="#FFC0CB" stroke-width="2"/>
<line y1="44.1963" x2="5.89926" y2="44.1963" stroke="#FFC0CB" stroke-width="2"/>
</g>
<defs>
<clipPath id="clip0_0_3">
<rect width="59" height="59" fill="white"/>
</clipPath>
</defs>
</svg>
