<svg width="60" height="60" viewBox="0 0 60 60" fill="none" xmlns="http://www.w3.org/2000/svg">
<path d="M37.6825 29.5C38.4101 29.5 39.0104 30.0934 38.8981 30.8123C38.6546 32.3706 37.9806 33.8398 36.9398 35.0478C35.6107 36.5906 33.7719 37.605 31.758 37.9064C29.7441 38.2078 27.6889 37.7761 25.9664 36.69C24.2439 35.6039 22.9685 33.9355 22.3724 31.9883C21.7762 30.0412 21.899 27.9447 22.7182 26.0804C23.5374 24.2161 24.9987 22.7079 26.8362 21.8302C28.6737 20.9524 30.7652 20.7635 32.7302 21.2978C34.2689 21.7162 35.6499 22.5562 36.724 23.7111C37.2196 24.2439 37.0544 25.0716 36.4514 25.479V25.479C35.8485 25.8863 35.0377 25.7135 34.5062 25.2165C33.8129 24.5681 32.9675 24.093 32.0388 23.8405C30.683 23.4718 29.2398 23.6022 27.972 24.2078C26.7041 24.8135 25.6958 25.8541 25.1306 27.1405C24.5653 28.4269 24.4806 29.8734 24.8919 31.2169C25.3033 32.5605 26.1833 33.7117 27.3718 34.4611C28.5603 35.2105 29.9784 35.5084 31.368 35.3004C32.7576 35.0925 34.0264 34.3925 34.9435 33.328C35.5716 32.5989 36.0062 31.7319 36.2176 30.8065C36.3797 30.0971 36.9549 29.5 37.6825 29.5V29.5Z" fill="#561E43"/>
</svg>
