<svg width="60" height="60" viewBox="0 0 60 60" fill="none" xmlns="http://www.w3.org/2000/svg">
<g id="NOR">
<path id="Rectangle 1" d="M35.0181 38.0301C30.1332 39.8965 23.7976 40.874 14.8244 40.9886C17.4149 36.7536 18.803 33.1651 18.8107 29.5023C18.8183 25.8381 17.4444 22.2487 14.833 18.0115C23.8017 18.1266 30.1348 19.1041 35.0181 20.9699C39.9289 22.8461 43.4346 25.6441 46.6996 29.5C43.4346 33.3559 39.9289 36.1539 35.0181 38.0301Z" stroke="#FFC0CB" stroke-width="2"/>
<path id="Ellipse 1" d="M54.3107 29.5071C54.3107 30.9751 53.1214 32.1643 51.6554 32.1643C50.1893 32.1643 49 30.9751 49 29.5071C49 28.0392 50.1893 26.85 51.6554 26.85C53.1214 26.85 54.3107 28.0392 54.3107 29.5071Z" stroke="#FFC0CB" stroke-width="2"/>
</g>
</svg>
